# xmcd CD database file
#
# Track frame offsets:
#	183
#	12358
#	26538
#	49735
#	66920
#	95158
#	115358
#	126795
#	144858
#	160458
#	179608
#	204258
#	214895
#	232333
#	247245
#	269495
#	281333
#
# Disc length: 3988 seconds
#
# Revision: 0
# Processed by: cddbd v1.5.1PL0 Copyright (c) Steve Scherf et al.
# Submitted via: CDex 1.51
#
DISCID=0a0f9211
DTITLE=Ella Fitzgerald - Oh! Lady, Be Good
DYEAR=1990
DGENRE=Jazz
TTITLE0=A Tisket A Tasket
TTITLE1=Oh! Lady, Be Good
TTITLE2=Tenderly
TTITLE3=Drop Me Off atT Harlem
TTITLE4=I Got it bad and That Aint't Good
TTITLE5=Body and Soul
TTITLE6=I've Got a Crush on You
TTITLE7=Love is Here to stay
TTITLE8=I'm Putting All My Eggs in One Basket
TTITLE9=It Don'tMean a Thing
TTITLE10=Prelude to a Kiss
TTITLE11=Azure
TTITLE12=These Foolish Things
TTITLE13=Just One of Those Things
TTITLE14=I Love You Porgy 
TTITLE15=The Lady is a Tramp
TTITLE16=Sphisticated Lady
EXTD=YEAR: 1990
EXTT0=
EXTT1=
EXTT2=
EXTT3=
EXTT4=
EXTT5=
EXTT6=
EXTT7=
EXTT8=
EXTT9=
EXTT10=
EXTT11=
EXTT12=
EXTT13=
EXTT14=
EXTT15=
EXTT16=
PLAYORDER=
